<?xml version="1.0" encoding="utf-8"?>
<!-- Generator: Adobe Illustrator 21.0.0, SVG Export Plug-In . SVG Version: 6.00 Build 0)  -->
<svg version="1.1" id="Layer_1" xmlns="http://www.w3.org/2000/svg" xmlns:xlink="http://www.w3.org/1999/xlink" x="0px" y="0px"
	 viewBox="0 0 100 100" style="enable-background:new 0 0 100 100;" xml:space="preserve">
<g>
	<path d="M5.3,41c0,0.4,0,0.8,0,1.1c0,0.6-0.1,1.1,0,1.7l0,2.1c0,0.3-0.1,0.4-0.4,0.4c-0.1,0-0.2,0-0.4,0c-0.2,0-0.4,0-0.7,0
		c-0.5,0-1.1,0-1.3,0c-0.3,0-0.3-0.1-0.3-0.4l0-0.9c0-0.3,0-0.9,0-1.6c0-0.8,0.1-1.1,0.1-1.9c0-0.8,0-1.2,0-2c0-0.8,0-1.6,0-2.4
		c0-0.8,0-1.7,0-2.4c0-0.4,0.1-0.5,0.3-0.5c0.1,0,0.3,0,0.5,0c0.4,0,2.1-0.1,2.5-0.1c0.4,0,1.6-0.1,2-0.1l1.5,0
		c0.3,0,0.4,0.1,0.4,0.3l0,0.9c0,0.2-0.1,0.2-0.3,0.2c-0.2,0-0.9,0-1.5,0c-0.3,0-0.8,0-1.3,0.1l-0.9,0.1l-0.1,0.3c0,0.2,0,0.4,0,0.6
		c0,0.4,0,0.9,0,1.6c0,0.3,0,0.6,0,0.9l0,0.4c0.2,0,0.4,0,0.5,0c0.3,0,0.6,0,0.8,0c0.4,0,1,0,1.4,0c0.4,0,0.5,0.1,0.5,0.3
		s0,0.4,0,0.6c0,0.2-0.1,0.2-0.4,0.2c-0.3,0-0.8,0-1.2,0l-1.6,0C5.3,40.5,5.3,40.8,5.3,41z"/>
	<path d="M20.1,40c0,1.2-0.3,6.5-5.1,6.5c-2.4,0-3.6-1.7-4.2-3.4c-0.4-1-0.6-2.1-0.6-3.4c0-3.2,2.3-6.1,4.6-6.1c1,0,1.8,0,2.4,0.4
		C19.6,35.6,20.1,39.1,20.1,40z M18.7,40c0-2.9-1.4-5.4-3.5-5.4c-0.7,0-1.1-0.1-1.6,0.5c-0.5,0.5-2.2,1.9-2.2,4.7
		c0,2.8,0.9,5.7,3.6,5.6C17.6,45.5,18.7,42.9,18.7,40z"/>
	<path d="M22.9,40.5c0.1,0.8,0.1,5.1,0.1,5.6c0,0.4-0.5,0.4-0.7,0.4c-0.2,0-0.2-0.3-0.2-0.5c0-0.1,0-0.5,0-0.8c0-0.2,0-0.4,0-0.5
		c0-0.4,0.1-4.8,0.1-7.6c0-1.2,0-2.1-0.1-2.4c0-0.1,0-0.3,0-0.4c0-0.4,0.1-0.4,0.3-0.4c0.2,0,1.9,0,2.6,0c0.7,0,3.4,0.2,3.4,1.7
		c0,2.1-2.9,2.4-3.8,2.4c-0.1,0-0.2,0-0.2,0c0.2,0.2,5.1,6.8,5.7,7.5c0.4,0.4,0.5,0.5,0.5,0.7c0,0.1-0.1,0.1-0.1,0.1
		c-0.1,0.1-0.5,0.1-0.8,0.1c-0.7,0-0.7-0.1-0.9-0.5c-0.1-0.3-1.8-2.3-2.6-3.5c-0.4-0.6-1.2-1.6-1.9-2.4L23,38.5l-0.1,0.7
		C22.8,39.6,22.8,40.1,22.9,40.5z M23.8,37.4c0.5,0,1.1-0.1,1.6-0.1c0.9-0.2,1.6-0.4,1.6-1.2c0-0.8-1.5-1.1-2.2-1.1
		c-0.4,0-0.9,0-1.2,0l-0.6,0l-0.1,2.5C23.2,37.4,23.5,37.4,23.8,37.4z"/>
	<path d="M32,39.5c0-1.4-0.1-1.5-0.1-2.5c0-1.1,0-2.1,0-2.6c0-0.3,0.1-0.4,0.3-0.4c0.1,0,0.2,0,0.3,0c0.3,0,0.6,0.1,1.4,0
		c0.8,0,2-0.2,2.7-0.2c0.7,0,1.6,0.1,2,0.1s0.4,0.2,0.4,0.5c0,0.4,0.1,0.8,0.1,1.3c0,0.2,0,0.4-0.1,0.7c0,0.2-0.1,0.3-0.2,0.3
		s-0.3-0.1-0.4-0.1c-0.3-0.1-0.8-0.1-1.5-0.1c-0.4,0-0.9,0-1.3,0c-0.2,0-0.3,0-0.5,0c-0.3,0-0.6,0-0.9,0c-0.4,0-0.8,0-0.9,0
		c-0.2,0-0.2,0.1-0.2,0.4c0,0.3-0.1,1.1-0.1,1.7l0,1c0,0.2,0,0.4,0,0.6c0.1,0,0.3,0,0.5,0c0.3,0,0.7,0,1.2,0c0.7,0,1.4-0.1,1.9-0.1
		c0.4,0,0.7,0.1,0.9,0.1s0.2,0.1,0.2,0.2s0,0.2,0,0.5c0,0.3,0,0.5,0,0.9c0,0.2-0.1,0.3-0.2,0.3c-0.1,0-0.2-0.1-0.3-0.1
		c-0.3,0-0.7,0-1.8,0c-1.1,0-1.9,0.1-2.1,0.1c-0.1,0-0.2,0-0.2,0c-0.1,0-0.1,0-0.1,0l0,1.8c0.1,0,0.1,0,0.2,0c0.1,0,0.3,0,0.5,0
		c0.4,0,1.3,0,2.1,0c0.6,0,1.5,0,2.2,0c0.3,0,0.6,0,0.7,0c0.3,0,0.4,0.2,0.4,0.4c0,0.1,0,0.2,0,0.4c0,0.4,0,0.7,0,1.2
		c0,0.5-0.3,0.4-0.8,0.4c-0.6,0-2.3,0-3.1,0c-0.8,0-2.6,0.1-2.8,0.1c0,0-0.1,0-0.1,0c-0.2,0-0.1-0.1-0.1-0.3c0-0.2,0-0.4,0-0.7
		c0-0.2,0-0.4,0-0.8l0-2.4C31.9,41.1,32,40.8,32,39.5z"/>
	<path d="M49.2,35.5c0.1,0.1,0.1,0.1,0.1,0.2c0,0.1-0.1,0.1-0.1,0.2c-0.1,0.2-0.4,0.7-0.6,0.9c-0.2,0.2-0.2,0.3-0.4,0.3
		c-0.2,0-1.8-1.8-3.1-1.8c-0.5,0-1.1,0-1.1,1.2c0,1.2,1.3,1.7,2.1,2c0.8,0.4,3.4,1.2,3.5,4.7c0,2.3-1.9,3.4-4.8,3.4
		c-2.9,0-3.8-1.8-4-2c-0.1-0.1-0.1-0.1-0.1-0.2c0-0.1,0.1-0.1,0.1-0.2c0.1-0.2,0.5-0.6,0.7-0.8c0.1-0.1,0.1-0.1,0.1-0.1
		c0.1,0,0.2,0.2,0.4,0.3c0.2,0.2,1,1,2.4,1c0.6,0,1.7-0.1,1.7-1.2c0-1.1-1.1-2-1.9-2.6c-0.8-0.6-3.2-1.4-3.2-3.7
		c0-2.3,2.6-3.7,3.9-3.7C47.4,33.6,49.1,35.4,49.2,35.5z"/>
	<path d="M57.9,40.9c0,1.5,0.3,4.1,0.3,4.8c0.1,0.7-0.5,0.5-1.6,0.6c-1.1,0-3.6-0.1-4-0.1c-0.1,0-0.2-0.1-0.2-0.4
		c0-0.3,0.1-0.7,0.1-1.2c0-0.2,0-0.8,0-1.6c0-1.8,0-4.7,0.1-5.9c0-0.5,0-0.9,0-1.2c0-0.5,0-1-0.1-1.3c-0.2,0-0.3,0-0.3,0
		c-0.3,0-1.3,0-1.5,0c-0.1,0-0.1-0.1-0.1-0.3c0-0.1,0-0.2,0-0.4c0-0.2,0.1-0.2,0.2-0.2c0.1,0,0.2,0,0.4,0l3.8,0c1,0,4.1-0.1,4.6-0.1
		c0.4,0,0.3,0.3,0.3,0.6c0,0.3-0.1,0.4-0.4,0.4c-0.3,0-0.7,0-1.5,0l-0.1,0C57.9,35.8,57.9,39.6,57.9,40.9z"/>
	<path d="M74.5,44.2c0,0.1,0,0.1-0.1,0.2c-0.2,0.3-1.2,2-3.5,2c-2.3,0-4.5-2.8-4.5-6.5c0-3.7,2.1-6.2,4.1-6.2c2,0,2.9,1.2,3.1,1.5
		c0.1,0.1,0.2,0.2,0.2,0.4c0,0.1-0.1,0.2-0.2,0.3c-0.3,0.3-0.9,0.8-1.2,1.1c-0.2,0.2-0.4,0.5-0.5,0.5c-0.1,0-0.2-0.1-0.3-0.2
		c-0.3-0.4-0.6-0.7-1.1-0.7c-0.8,0-1.9,0.9-1.9,3.8c0,2.9,1.6,3.4,2.1,3.4c0.5,0,1-0.5,1.2-0.7c0.1-0.1,0.2-0.2,0.3-0.2
		c0.1,0,0.1,0,0.2,0.1l1.5,0.8C74.3,44,74.5,44,74.5,44.2z"/>
	<path d="M76.2,34.4c0-0.6,0.2-0.7,0.4-0.7c0,0,0.1,0,0.1,0c0.3,0,0.9,0,1.4,0c0.3,0,0.4,0.1,0.4,0.3c0,0.1,0,0.2-0.1,0.4
		c-0.1,0.4-0.2,1.4-0.2,3.1c0,0.5,0,1,0,1.4c0,1.3,0,2.4,0,2.7c0,0.3,0.1,1.4,0.1,2.1c0,0.2,0,0.3,0,0.4s0,0.2,0,0.4
		c0,0.5,0,1.2,0,1.5c0,0.3-0.3,0.4-0.5,0.3l-1.6,0c-0.4,0-0.4-0.2-0.4-0.5c-0.1-0.3,0.1-0.9,0.1-1.5c0-0.7,0.2-3.7,0.2-4.2
		c0-0.5,0.1-2.9,0.1-3.3c0-0.2,0-0.6,0-1l0-0.6L76.2,34.4z"/>
	<path d="M87.1,40.8c0,1.5,0.3,4.1,0.3,4.8c0.1,0.7-0.5,0.5-1.6,0.6c-1.1,0-3.6-0.1-4-0.1c-0.1,0-0.2-0.1-0.2-0.4
		c0-0.3,0.1-0.7,0.1-1.2c0-0.2,0-0.8,0-1.6c0-1.8,0-4.7,0.1-5.9c0-0.5,0-0.9,0-1.2c0-0.5,0-1-0.1-1.3c-0.2,0-0.3,0-0.3,0
		c-0.3,0-1.3,0-1.5,0c-0.1,0-0.1-0.1-0.1-0.3c0-0.1,0-0.2,0-0.4c0-0.2,0.1-0.2,0.2-0.2c0.1,0,0.2,0,0.4,0l3.8,0c1,0,4.1-0.1,4.6-0.1
		c0.4,0,0.3,0.3,0.3,0.6c0,0.3-0.1,0.4-0.4,0.4c-0.3,0-0.7,0-1.5,0l-0.1,0C87.1,35.7,87.1,39.6,87.1,40.8z"/>
	<path d="M92.5,46.2c-0.4,0-0.6,0-0.7,0c-0.2,0-0.2,0-0.2-0.1c0-0.1,0.1-0.1,0.1-0.2c0.1-0.2,0.5-1.4,0.6-1.7c0.1-0.3,0.4-1,0.5-1.3
		c0.1-0.3,0.2-0.5,0.2-0.7c-0.1-0.2-0.3-1.1-0.5-1.5c-0.2-0.5-0.3-1-0.5-1.6c-0.2-0.5-1.2-3.5-1.4-4c-0.1-0.5-0.4-0.7-0.4-0.9
		c0-0.2,0.3-0.2,0.5-0.2c0.1,0,0.2,0,0.3,0c0.1,0,0.3,0,0.4,0c0.3,0,0.6,0,0.7,0c0.3,0.1,0.2,0.2,0.2,0.4c0.1,0.2,0.2,0.8,0.5,1.5
		c0.1,0.4,0.4,1.2,0.6,1.7c0.1,0.3,0.3,0.9,0.5,1.3c0.1,0.3,0.2,0.5,0.3,0.8l0.1-0.4c0.1-0.3,0.2-0.5,0.2-0.8l0.2-0.5l0.2-0.5
		c0-0.1,0.1-0.2,0.2-0.5c0.1-0.2,0.2-0.4,0.2-0.5c0.2-0.4,0.5-1.4,0.7-2c0.1-0.6,0.4-0.5,0.7-0.5c0.1,0,0.8,0,1.1,0
		c0.3,0,0.4,0.1,0.4,0.2c0,0.1,0,0.1,0,0.2c-0.1,0.2-0.4,1.4-0.7,2.1c-0.3,0.7-1.2,3.2-1.5,4c-0.3,0.8-1.6,3.9-1.6,4.2
		c-0.1,0.3-0.2,1-0.3,1.3c-0.1,0.2-0.1,0.4-0.3,0.4l-0.5,0C93.1,46.2,92.9,46.2,92.5,46.2z"/>
	<path d="M13.4,58.9c0,2.6-2.1,3.2-2.9,3.2c-0.4,0-1,0.1-1.6,0.1c-0.3,0-0.7,0.1-1.1,0.1c0,0.8,0,1.6,0,2.2c0,1.1,0,2.3,0.1,2.5
		c0.1,0.4-0.4,0.6-0.6,0.5c-0.1,0-0.2,0-0.3,0c-0.3,0-0.8,0-1.1,0.1c-0.4,0.1-0.5-0.2-0.5-0.6c0-0.3,0-1.5,0-2.2
		c0-0.6,0.1-5.9,0.1-7.9c0-0.4,0-0.6,0-0.8c0-0.2,0-0.3,0-0.5c0-0.4,0.1-0.5,0.2-0.5c0.2,0,0.7,0,1.1,0c0.2,0,1,0,1.9,0
		c0.6,0,1.2,0,1.8,0C12,55.3,13.4,56.3,13.4,58.9z M10,60.8c0.6,0,1.8-0.3,1.8-1.8c0-1.5-0.7-2.1-1.7-2.3C9,56.5,8.3,56.5,8,56.5
		c0,0.2,0,0.5,0,0.7c0,0.4,0,0.9-0.1,1.4c-0.1,0.5-0.1,1,0,1.4l0,0.7l0.8,0.1C9.2,60.8,9.7,60.8,10,60.8z"/>
	<path d="M15.1,62c0,0.4,0.1,0.6,0.1,1l0,2.1c0,0.3,0,0.6,0,0.9c0,0.2,0,0.3,0,0.4c0.2,0,0.5,0,0.7,0c0.4,0,0.8,0,1.1,0
		c0.7,0,1.2,0,1.9,0c0.6,0,1.2-0.1,1.7-0.1c0.5,0,0.9,0,1.1,0c0.2,0,0.2,0.1,0.2,0.3c0,0.2,0,0.4,0,0.5c0,0.2-0.1,0.2-0.4,0.2
		c-0.1,0-0.2,0-0.3,0c-0.3,0-1.1,0-1.9,0c-0.4,0-0.9,0-1.3,0c-0.3,0-0.6,0-1,0c-0.9,0-1.9,0-2.3,0c-0.4,0-0.4-0.1-0.4-0.3
		c0-0.1,0-0.2,0-0.3c0-0.1,0-0.1,0-0.2c0-0.1,0-0.2,0-1c0-1.1-0.1-2.5-0.1-3.6c0-1.2,0.1-2.9,0.1-3.7c0-0.7,0-2-0.1-2.7
		c-0.1-0.7,0.8-0.4,1.4-0.4c0.5,0,2-0.1,3-0.1c0.9,0,2.7,0,3.1,0c0.4,0,0.3,0.3,0.3,0.5c0,0.1,0,0.1,0,0.2c0,0.2,0,0.4-0.1,0.4
		c-0.2,0-0.2-0.1-0.6-0.1l-2.8,0l-2.2,0c-0.3,0-0.6,0-0.8,0.1l-0.4,0l0,0.5c0,0.3,0,0.6,0,0.8c0,0.5,0.1,1,0.1,1.4l0,0.7
		c0,0.1,0,0.3,0,0.4c0.2,0,0.3,0,0.5,0l0.7,0c0.3,0,0.7-0.1,1.2-0.1c0.6,0,1.2,0.1,1.4,0.1c0.2,0,0.5-0.1,0.9-0.1
		c0.3,0,0.9,0.1,1.2,0.1c0.1,0,0.2,0,0.3,0c0,0,0.1,0,0.1,0c0.2,0,0.2,0.2,0.2,0.2c0,0.1,0,0.5,0,0.6c0,0.2,0,0.2-0.3,0.2
		c-0.2,0-1.8-0.2-2.4-0.2c-0.7,0-1.5,0-2.2,0.1c-0.4,0.1-0.7,0-1,0c-0.2,0-0.3,0-0.5,0l-0.1,0.3C15.1,61.6,15.1,61.8,15.1,62z"/>
	<path d="M30.2,62.1c0,1.5,0.3,4.1,0.3,4.8c0.1,0.7-0.5,0.5-1.6,0.6c-1.1,0-3.6-0.1-4-0.1c-0.1,0-0.2-0.1-0.2-0.4
		c0-0.3,0.1-0.7,0.1-1.2c0-0.2,0-0.8,0-1.6c0-1.8,0-4.7,0.1-5.9c0-0.5,0-0.9,0-1.2c0-0.5,0-1-0.1-1.3c-0.2,0-0.3,0-0.3,0
		c-0.3,0-1.3,0-1.5,0c-0.1,0-0.1-0.1-0.1-0.3c0-0.1,0-0.2,0-0.4c0-0.2,0.1-0.2,0.2-0.2c0.1,0,0.2,0,0.4,0l3.8,0c1,0,4.1-0.1,4.6-0.1
		c0.4,0,0.3,0.3,0.3,0.6c0,0.3-0.1,0.4-0.4,0.4s-0.7,0-1.5,0l-0.1,0C30.2,57.1,30.2,60.9,30.2,62.1z"/>
	<path d="M47.1,67c0.2,0.3,0.2,0.4,0.2,0.5c0,0.1-0.2,0.1-0.3,0.1c-0.3,0-1.7,0.1-2,0.1c-0.3,0-0.3-0.4-0.8-1.3C44,66,43.5,65,43,64
		l-0.9-1.7c0.1,0.8,0.1,1.6,0.1,2.3c0.1,1.2,0.1,2.4,0.2,2.6c0,0.1,0,0.1,0,0.2c0,0.3-0.2,0.4-0.5,0.3c-0.4-0.1-1.8,0.1-2.3,0.1
		c-0.3,0-0.4-0.1-0.4-0.4c0-0.1,0-0.2,0-0.4c0-0.4-0.1-2.8-0.1-4.2c0-0.4,0-0.8,0.1-1c0.1-0.4,0.1-1.4,0.1-2.5c0-1.3,0-2.7-0.1-3.2
		c0-0.1,0-0.3,0-0.4c0-0.6,0.2-0.6,0.4-0.6c0.2,0,1.3-0.2,2.3-0.2c2.8,0,4,1.6,4,3.7c0,1.1-0.4,1.9-0.8,2.5
		c-0.2,0.3-0.5,0.7-0.8,0.9l1.2,2.2C46.1,65.4,46.8,66.7,47.1,67z M42.5,59.8c0.3-0.1,0.5-0.4,0.5-0.9c0-0.7-0.3-1-0.6-1
		c-0.1,0-0.2,0.1-0.3,0.1c-0.1,0.1,0.1,0.5,0,1C42,59.2,42,59.4,42,59.6c0,0.1,0,0.1,0,0.2c0,0.1,0,0.1,0,0.1
		C42.2,59.9,42.3,59.9,42.5,59.8z"/>
	<path d="M49,60.7c0-1.4-0.1-1.5-0.1-2.5c0-1.1,0-2.1,0-2.6c0-0.3,0.1-0.4,0.3-0.4c0.1,0,0.2,0,0.3,0c0.3,0,0.6,0.1,1.4,0.1
		c0.8,0,2-0.2,2.7-0.2c0.7,0,1.6,0.1,2,0.1c0.3,0,0.4,0.2,0.4,0.5c0,0.4,0.1,0.8,0.1,1.3c0,0.2,0,0.4-0.1,0.7c0,0.2-0.1,0.3-0.2,0.3
		c-0.1,0-0.3-0.1-0.4-0.1c-0.3-0.1-0.8-0.1-1.5-0.1c-0.4,0-0.9,0-1.3,0c-0.2,0-0.3,0-0.5,0c-0.3,0-0.6,0-0.9,0c-0.4,0-0.8,0-0.9,0
		c-0.2,0-0.2,0.1-0.2,0.4c0,0.3-0.1,1.1-0.1,1.7l0,1c0,0.2,0,0.4,0,0.6c0.1,0,0.3,0,0.5,0c0.3,0,0.7,0,1.2,0c0.7,0,1.5-0.1,1.9-0.1
		c0.4,0,0.7,0.1,0.9,0.1c0.2,0,0.2,0.1,0.2,0.2s0,0.2,0,0.5c0,0.3,0,0.5,0,0.9c0,0.2-0.1,0.3-0.2,0.3c-0.1,0-0.2-0.1-0.3-0.1
		c-0.3,0-0.7,0-1.8,0c-1.1,0-1.9,0.1-2.1,0.1c-0.1,0-0.2,0-0.2,0c-0.1,0-0.1,0-0.1,0l0,1.8c0.1,0,0.1,0,0.2,0c0.1,0,0.3,0,0.5,0
		c0.4,0,1.3,0,2.1,0c0.6,0,1.5,0,2.2,0c0.3,0,0.6,0,0.7,0c0.3,0,0.4,0.2,0.4,0.4c0,0.1,0,0.2,0,0.4c0,0.4,0,0.7,0,1.2
		c0,0.5-0.3,0.4-0.8,0.4c-0.6,0-2.3,0-3.1,0c-0.8,0-2.6,0.1-2.8,0.1c0,0-0.1,0-0.1,0c-0.2,0-0.1-0.1-0.1-0.3c0-0.2,0-0.4,0-0.7
		s0-0.4,0-0.8l0-2.4C48.8,62.3,49,62,49,60.7z"/>
	<path d="M61.9,56c-1.7,0-2.5,0.9-2.5,2c0,1.1,1,1.7,1.9,2.2c0.9,0.4,3.8,1,3.8,4c0,3-2.9,3.5-4.4,3.5c-1.5,0-2.7-1.1-2.9-1.2
		c-0.1-0.1-0.1-0.2-0.1-0.3c0.1-0.1,0.2-0.5,0.4-0.5c0,0,0,0,0,0c0.1,0,0.1,0,0.4,0.3c0.3,0.3,1.4,0.8,2,0.8c0.6,0,2.6-0.1,2.6-2.1
		c0-1-1.4-1.5-2.8-2.3c-1.3-0.8-2.6-1.7-2.6-3.7c0-2.3,2.3-3.6,4.1-3.6c1.7,0,2.9,1.1,3.1,1.2c0.1,0.1,0.2,0.2,0.2,0.2
		c0,0.1,0,0.1-0.1,0.1c-0.1,0.1-0.3,0.5-0.5,0.5c-0.1,0-0.1,0-0.2-0.1L64.2,57C64,56.8,62.9,56,61.9,56z"/>
	<path d="M74.7,65.4c0,0.1,0,0.1-0.1,0.2c-0.2,0.3-1.2,2-3.5,2c-2.3,0-4.5-2.8-4.5-6.5c0-3.7,2.1-6.2,4.1-6.2c2,0,2.9,1.2,3.1,1.5
		c0.1,0.1,0.2,0.2,0.2,0.4c0,0.1-0.1,0.2-0.2,0.3c-0.3,0.3-0.9,0.8-1.2,1.1c-0.2,0.2-0.4,0.5-0.5,0.5c-0.1,0-0.2-0.1-0.3-0.2
		c-0.3-0.4-0.6-0.7-1.1-0.7c-0.8,0-1.9,0.9-1.9,3.8c0,2.9,1.6,3.4,2.1,3.4c0.5,0,1-0.5,1.2-0.7c0.1-0.1,0.2-0.2,0.3-0.2
		c0.1,0,0.1,0,0.2,0.1l1.5,0.8C74.4,65.2,74.7,65.3,74.7,65.4z"/>
	<path d="M80.8,63.6c1.1,0,1.2-1.1,1.2-1.7c0-0.4,0.1-2,0.1-3.1c0-0.3,0-0.5,0-0.7c0-0.9-0.1-2.4-0.1-2.9c0-0.4,0.1-0.6,0.4-0.6
		l2.2,0c0.1,0,0.2,0,0.3,0c0.2,0,0.4,0.1,0.4,0.5c0,0.3,0,1.1,0,2.1c0,1.4,0,3.1,0,3.8c0,1.1-0.3,6.1-4.5,6.1c-4.2,0-4.5-3.1-4.5-4
		c0-0.2,0-0.4,0-0.7c0-1.3,0.1-3.4,0.1-4.3c0-1.2-0.1-2.6-0.1-2.9c0-0.4-0.1-0.7,0.4-0.6c0.3,0,0.6,0,0.9,0c0.2,0,0.4,0,0.6,0
		c0.2,0,0.4,0,0.6,0c0.3,0,0.6,0,0.7,0c0.2,0,0.2,0.1,0.3,0.4l0,7.1C79.8,62.6,79.7,63.6,80.8,63.6z"/>
	<path d="M87.5,60.6c0-1.4-0.1-1.5-0.1-2.5c0-1.1,0-2.1,0-2.6c0-0.3,0.1-0.4,0.3-0.4c0.1,0,0.2,0,0.3,0c0.3,0,0.6,0.1,1.4,0.1
		c0.8,0,2-0.2,2.7-0.2c0.7,0,1.6,0.1,2,0.1c0.3,0,0.4,0.2,0.4,0.5c0,0.4,0.1,0.8,0.1,1.3c0,0.2,0,0.4-0.1,0.7c0,0.2-0.1,0.3-0.2,0.3
		c-0.1,0-0.3-0.1-0.4-0.1c-0.3-0.1-0.8-0.1-1.5-0.1c-0.4,0-0.9,0-1.3,0c-0.2,0-0.3,0-0.5,0c-0.3,0-0.6,0-0.9,0c-0.4,0-0.8,0-0.9,0
		c-0.2,0-0.2,0.1-0.2,0.4c0,0.3-0.1,1.1-0.1,1.7l0,1c0,0.2,0,0.4,0,0.6c0.1,0,0.3,0,0.5,0c0.3,0,0.7,0,1.2,0c0.7,0,1.4-0.1,1.9-0.1
		c0.4,0,0.7,0.1,0.9,0.1c0.2,0,0.2,0.1,0.2,0.2c0,0.1,0,0.2,0,0.5c0,0.3,0,0.5,0,0.9c0,0.2-0.1,0.3-0.2,0.3c-0.1,0-0.2-0.1-0.3-0.1
		c-0.3,0-0.7,0-1.8,0c-1.1,0-1.9,0.1-2.1,0.1c-0.1,0-0.2,0-0.2,0c-0.1,0-0.1,0-0.1,0l0,1.8c0.1,0,0.1,0,0.2,0c0.1,0,0.3,0,0.5,0
		c0.4,0,1.3,0,2.1,0c0.6,0,1.5,0,2.2,0c0.3,0,0.6,0,0.7,0c0.3,0,0.4,0.2,0.4,0.4c0,0.1,0,0.2,0,0.4c0,0.4,0,0.7,0,1.2
		c0,0.5-0.3,0.4-0.8,0.4c-0.6,0-2.3,0-3.1,0c-0.8,0-2.6,0.1-2.8,0.1c0,0-0.1,0-0.1,0c-0.2,0-0.1-0.1-0.1-0.3c0-0.2,0-0.4,0-0.7
		s0-0.4,0-0.8l0-2.4C87.4,62.3,87.5,61.9,87.5,60.6z"/>
</g>
</svg>
